<?xml version="1.0" encoding="UTF-8" standalone="no"?>
<!DOCTYPE svg PUBLIC "-//W3C//DTD SVG 1.1//EN" "http://www.w3.org/Graphics/SVG/1.1/DTD/svg11.dtd">
<svg xmlns="http://www.w3.org/2000/svg" version="1.1" viewBox="0.00 0.00 94.00 82.00">
<path fill="#ff570a" d="
  M 70.43 82.00
  L 69.04 82.00
  Q 68.33 81.68 68.36 82.00
  L 67.40 82.00
  Q 67.98 79.99 67.10 78.49
  C 65.56 75.86 61.42 76.94 61.49 72.74
  C 61.61 65.61 66.98 62.38 73.07 59.42
  C 76.98 57.52 79.87 55.87 82.68 53.15
  Q 87.00 48.97 87.42 41.37
  Q 87.44 40.91 87.14 40.55
  Q 82.75 35.33 77.45 32.40
  Q 69.81 28.18 60.78 30.31
  Q 60.33 30.42 60.24 29.96
  C 58.07 18.10 49.33 10.47 37.50 8.44
  Q 36.89 8.34 36.98 8.94
  Q 37.90 15.45 41.51 20.38
  C 43.58 23.21 47.97 25.72 50.63 27.55
  C 53.08 29.24 54.73 31.25 55.88 33.76
  Q 56.23 34.54 55.66 33.90
  Q 50.89 28.64 45.02 26.27
  Q 37.10 23.08 28.87 25.57
  Q 28.28 25.74 28.61 26.26
  C 33.83 34.66 42.96 40.10 52.61 41.58
  A 1.40 1.39 -3.6 0 1 53.73 42.56
  L 55.11 47.21
  Q 55.26 47.71 54.79 47.49
  Q 45.17 43.07 36.49 44.01
  C 26.77 45.06 20.47 52.04 17.95 61.08
  A 0.55 0.55 0.0 0 1 17.32 61.48
  C 14.92 61.05 12.33 61.89 11.95 64.45
  C 11.51 67.43 13.43 69.97 15.88 71.62
  Q 16.57 72.09 16.81 71.29
  Q 17.81 67.91 19.84 66.10
  Q 20.33 65.67 20.16 66.30
  C 19.91 67.18 19.21 68.16 18.98 68.79
  Q 17.03 74.33 20.32 79.23
  Q 21.36 80.79 21.76 81.49
  A 0.21 0.21 0.0 0 1 21.53 81.80
  Q 13.46 80.21 9.59 75.40
  Q 1.40 65.18 0.00 50.55
  L 0.00 43.60
  Q 3.44 14.54 29.50 3.47
  Q 38.25 -0.24 48.79 0.35
  Q 69.76 1.52 82.97 17.60
  C 96.47 34.02 96.88 57.31 84.62 74.38
  Q 79.71 81.22 70.43 82.00
  Z"
/>
<path fill="#ff570a" d="
  M 60.12 82.00
  L 56.88 82.00
  Q 55.46 81.69 54.04 82.00
  L 52.37 82.00
  Q 51.55 81.69 51.08 82.00
  L 50.29 82.00
  Q 53.23 76.03 48.59 71.91
  Q 47.87 71.27 47.59 70.96
  Q 46.62 69.89 47.96 70.44
  Q 50.26 71.39 52.19 73.58
  Q 54.52 76.24 58.12 79.88
  Q 59.13 80.91 60.12 82.00
  Z"
/>
</svg>
